{"title":"A Million Ways To Die In The West 2014 HDRIP XVID AC3 ACAB","uid":10930659,"size":920147143,"categoryP":"video","categoryS":"movies","magnet":"?xt=urn:btih:f57f5bcdd594ee8ee5dcd2e2620aead0d2980e36&amp;dn=A+Million+Ways+To+Die+In+The+West+2014+HDRIP+XVID+AC3+ACAB&amp;tr=udp%3A%2F%2Ftracker.openbittorrent.com%3A80&amp;tr=udp%3A%2F%2Fopen.demonii.com%3A1337&amp;tr=udp%3A%2F%2Ftracker.coppersurfer.tk%3A6969&amp;tr=udp%3A%2F%2Fexodus.desync.com%3A6969","seeders":0,"leechers":1,"uploader":"Xetron","files":3,"time":1409399430,"description":"General\n\nFormat                           : AVI\n\nFormat/Info                      : Audio Video Interleave\n\nFile size                        : 864 MiB\n\nDuration                         : 1h 56mn\n\nOverall bit rate                 : 1 039 Kbps\n\n\n\nVideo\n\nID                               : 0\n\nFormat                           : MPEG-4 Visual\n\nFormat profile                   : Advanced Simple@L5\n\nFormat settings, BVOP            : Yes\n\nFormat settings, QPel            : No\n\nFormat settings, GMC             : No warppoints\n\nFormat settings, Matrix          : Default (H.263)\n\nMuxing mode                      : Packed bitstream\n\nCodec ID                         : XVID\n\nCodec ID/Hint                    : XviD\n\nDuration                         : 1h 56mn\n\nBit rate                         : 648 Kbps\n\nWidth                            : 720 pixels\n\nHeight                           : 304 pixels\n\nDisplay aspect ratio             : 2.35:1\n\nFrame rate                       : 23.976 fps\n\nColor space                      : YUV\n\nChroma subsampling               : 4:2:0\n\nBit depth                        : 8 bits\n\nScan type                        : Progressive\n\nCompression mode                 : Lossy\n\nBits/(Pixel*Frame)               : 0.124\n\nStream size                      : 539 MiB (62%)\n\nWriting library                  : XviD 1.2.1 (UTC 2008-12-04)\n\n\n\nAudio\n\nID                               : 1\n\nFormat                           : AC-3\n\nFormat/Info                      : Audio Coding 3\n\nMode extension                   : CM (complete main)\n\nCodec ID                         : 2000\n\nDuration                         : 1h 55mn\n\nBit rate mode                    : Constant\n\nBit rate                         : 384 Kbps\n\nChannel(s)                       : 6 channels\n\nChannel positions                : Front: L C R, Side: L R, LFE\n\nSampling rate                    : 48.0 KHz\n\nBit depth                        : 16 bits\n\nCompression mode                 : Lossy\n\nStream size                      : 318 MiB (37%)\n\nAlignment                        : Aligned on interleaves\n\nInterleave, duration             : 64 ms (1.54 video frames)\n\nInterleave, preload duration     : 192 ms\n\nTitle                            : English","torrent":{"xt":"urn:btih:f57f5bcdd594ee8ee5dcd2e2620aead0d2980e36","amp;dn":"A+Million+Ways+To+Die+In+The+West+2014+HDRIP+XVID+AC3+ACAB","amp;tr":["udp%3A%2F%2Ftracker.openbittorrent.com%3A80","udp%3A%2F%2Fopen.demonii.com%3A1337","udp%3A%2F%2Ftracker.coppersurfer.tk%3A6969","udp%3A%2F%2Fexodus.desync.com%3A6969"],"infoHash":"f57f5bcdd594ee8ee5dcd2e2620aead0d2980e36","infoHashBuffer":{"type":"Buffer","data":[245,127,91,205,213,148,238,142,229,220,210,226,98,10,234,208,210,152,14,54]},"announce":[],"urlList":[]}}